<svg xmlns="http://www.w3.org/2000/svg" viewBox="0 0 1200 630" fill="none">
  <rect width="1200" height="630" fill="#0b0e14" />
  <g stroke="#8b86ff" stroke-width="1.5" opacity="0.25">
    <path d="M140 180 420 120M420 120 640 300M640 300 940 220M940 220 1080 420M420 120 360 400M360 400 640 300M360 400 180 600M640 300 720 580M720 580 940 220" />
  </g>
  <g fill="#8b86ff" opacity="0.5">
    <circle cx="140" cy="180" r="6" />
    <circle cx="420" cy="120" r="8" />
    <circle cx="640" cy="300" r="10" />
    <circle cx="940" cy="220" r="8" />
    <circle cx="1080" cy="420" r="6" />
    <circle cx="360" cy="400" r="8" />
    <circle cx="720" cy="580" r="9" />
  </g>
  <text x="90" y="300" font-family="Space Grotesk, sans-serif" font-size="84" font-weight="700" fill="#e8eaed">Sam McManagan</text>
  <text x="92" y="370" font-family="Inter, sans-serif" font-size="34" fill="#9aa3b2">Machine learning &amp; data science</text>
</svg>
